<svg data-v-423bf9ae="" xmlns="http://www.w3.org/2000/svg" viewBox="0 0 221.75908053396645 169" class="iconAbove"><!----><!----><!----><g data-v-423bf9ae="" id="4e723184-ad3d-4fa3-8674-a29969e7c748" fill="black" transform="matrix(5.736137646384677,0,0,5.736137646384677,-3.5564031651154266,86.50420344010857)"><path d="M4.62 14.22L4.62 14.22Q3.86 14.22 2.70 13.94L2.70 13.94Q1.97 14.14 1.34 14.14Q0.71 14.14 0.62 14.10L0.62 14.10Q0.71 13.26 1.45 9.96Q2.18 6.66 2.18 5.82L2.18 5.82Q2.18 5.66 2.00 5.38Q1.82 5.10 1.64 4.90L1.64 4.90L1.46 4.70L1.50 4.49Q3.33 4.12 5.45 4.12L5.45 4.12Q6.61 4.12 7.36 4.67Q8.11 5.22 8.11 6.22L8.11 6.22Q8.11 8.13 5.77 8.88L5.77 8.88Q6.71 8.99 7.34 9.58Q7.98 10.18 7.98 11.26L7.98 11.26Q7.98 12.57 7.03 13.40Q6.08 14.22 4.62 14.22ZM4.37 9.25L4.37 9.25Q3.98 9.25 3.67 9.32L3.67 9.32Q3.07 11.98 2.90 13.03L2.90 13.03Q3.25 13.27 4.00 13.27Q4.75 13.27 5.28 12.68Q5.81 12.08 5.81 10.96L5.81 10.96Q5.81 9.25 4.37 9.25ZM5.15 4.98L5.15 4.98Q4.62 4.98 4.52 5.08L4.52 5.08Q4.33 6.34 3.88 8.39L3.88 8.39Q4.44 8.39 4.66 8.32Q4.89 8.25 5.06 8.13Q5.24 8.02 5.46 7.78L5.46 7.78Q5.95 7.27 5.95 6.13Q5.95 4.98 5.15 4.98ZM10.65 14.22L10.65 14.22Q9.69 14.22 9.14 13.55Q8.60 12.87 8.60 11.65L8.60 11.65Q8.60 10.09 9.43 8.97Q10.26 7.85 11.73 7.85L11.73 7.85L12.24 7.88Q12.47 7.76 12.77 7.76L12.77 7.76Q13.87 7.76 13.87 9.84L13.87 9.84Q14.45 9.81 15.04 9.69L15.04 9.69L15.26 9.63L15.34 10.18Q14.88 10.37 14.10 10.53L14.10 10.53L13.82 10.58Q13.55 12.05 12.74 13.14Q11.93 14.22 10.65 14.22ZM11.41 13.02L11.41 13.02Q12.00 13.02 12.47 12.26Q12.94 11.51 13.12 10.67L13.12 10.67Q11.62 10.67 11.62 9.55L11.62 9.55Q11.62 9.10 11.80 8.71L11.80 8.71L11.87 8.57Q11.82 8.54 11.73 8.54Q11.65 8.54 11.61 8.57L11.61 8.57Q11.26 8.79 10.95 9.62Q10.64 10.44 10.64 11.51L10.64 11.51Q10.64 13.02 11.41 13.02ZM15.51 14.22Q15.02 14.22 14.71 13.90Q14.39 13.58 14.39 13.00Q14.39 12.42 15.09 9.29Q15.78 6.16 15.78 4.77L15.78 4.77L15.69 4.16Q16.79 3.78 17.74 3.78L17.74 3.78Q17.88 3.98 17.88 4.47L17.88 4.47Q17.88 5.59 17.17 8.80Q16.46 12.01 16.46 12.54Q16.46 13.06 16.59 13.06L16.59 13.06L17.57 12.71L17.82 13.20Q17.35 13.58 16.67 13.90Q15.99 14.22 15.51 14.22ZM18.09 11.63L18.09 11.63Q18.09 9.88 19.14 8.87Q20.20 7.85 21.55 7.85L21.55 7.85Q22.37 7.85 22.90 8.26Q23.44 8.67 23.44 9.35Q23.44 10.02 23.09 10.49Q22.75 10.95 22.26 11.20L22.26 11.20Q21.27 11.69 20.44 11.82L20.44 11.82L20.10 11.86Q20.20 13.17 21.18 13.17L21.18 13.17Q21.52 13.17 21.90 13.01Q22.27 12.84 22.48 12.67L22.48 12.67L22.69 12.50L23.03 12.95Q22.92 13.10 22.58 13.36Q22.25 13.61 21.95 13.78L21.95 13.78Q21.14 14.22 20.17 14.22Q19.21 14.22 18.65 13.54Q18.09 12.85 18.09 11.63ZM20.09 11.17Q20.80 11.05 21.22 10.57Q21.64 10.09 21.64 9.34Q21.64 8.58 21.20 8.58L21.20 8.58Q20.66 8.58 20.38 9.49Q20.09 10.39 20.09 11.17L20.09 11.17ZM26.75 8.02L28.11 8.02Q28.08 8.37 27.87 8.83L27.87 8.83Q27.34 8.78 26.87 8.78L26.87 8.78L26.61 8.78Q25.97 11.90 25.97 12.67L25.97 12.67Q25.97 13.08 26.15 13.08Q26.32 13.08 27.08 12.73L27.08 12.73L27.33 13.19Q26.08 14.22 25.02 14.22L25.02 14.22Q24.53 14.22 24.21 13.92Q23.90 13.61 23.90 13.10Q23.90 12.59 24.02 11.94Q24.14 11.30 24.35 10.37Q24.56 9.44 24.65 8.86L24.65 8.86Q24.14 8.90 23.88 8.95L23.88 8.95Q23.86 8.78 23.86 8.49Q23.86 8.20 23.90 8.02L23.90 8.02L24.78 8.02Q24.89 7.27 24.89 6.59L24.89 6.59L24.88 6.16L24.88 6.12Q25.97 5.74 26.94 5.74L26.94 5.74Q26.99 6.02 26.99 6.44Q26.99 6.86 26.75 8.02L26.75 8.02ZM28.08 13.00Q28.08 12.40 28.45 10.96Q28.81 9.51 28.81 9.18Q28.81 8.85 28.31 8.30L28.31 8.30L28.32 8.12Q29.27 7.92 30.83 7.92L30.83 7.92Q30.90 8.11 30.90 8.58Q30.90 9.06 30.51 10.61Q30.11 12.17 30.11 12.54Q30.11 12.92 30.39 12.92L30.39 12.92Q30.80 12.92 31.33 12.63L31.33 12.63Q31.39 12.29 31.61 11.34L31.61 11.34Q32.12 9.10 32.12 8.13L32.12 8.13Q32.61 7.94 33.88 7.94L33.88 7.94L34.15 7.94Q34.15 8.60 33.75 10.51Q33.36 12.42 33.36 12.75Q33.36 13.08 33.50 13.08L33.50 13.08Q33.59 13.08 34.30 12.74L34.30 12.74L34.57 13.19Q33.32 14.22 32.38 14.22L32.38 14.22Q31.93 14.22 31.62 13.97Q31.30 13.72 31.26 13.31L31.26 13.31Q30.13 14.24 29.20 14.24L29.20 14.24Q28.71 14.24 28.40 13.92Q28.08 13.59 28.08 13.00ZM39.28 12.22L39.28 12.22Q39.28 13.10 38.51 13.66Q37.73 14.22 36.74 14.22Q35.74 14.22 35.16 13.80Q34.58 13.38 34.58 13.06L34.58 13.06Q34.58 12.87 35.07 12.43Q35.56 11.98 35.90 11.89L35.90 11.89Q36.60 12.40 37.04 13.52L37.04 13.52Q37.56 13.48 37.56 13.03L37.56 13.03Q37.56 12.39 36.43 11.21Q35.29 10.02 35.29 9.32Q35.29 8.62 35.92 8.24Q36.55 7.85 37.44 7.85Q38.33 7.85 38.78 8.17Q39.23 8.48 39.23 9.02Q39.23 9.56 38.37 10.51L38.37 10.51Q38.47 10.61 38.63 10.77Q38.78 10.93 39.03 11.38Q39.28 11.83 39.28 12.22ZM37.94 10.02Q38.53 9.52 38.53 9.03Q38.53 8.54 37.86 8.54L37.86 8.54Q37.53 8.54 37.32 8.67Q37.11 8.81 37.11 8.97L37.11 8.97Q37.11 9.28 37.73 9.84L37.73 9.84L37.94 10.02Z"></path></g><!----><g data-v-423bf9ae="" id="d4f77c39-3315-443c-9f35-576654009da8" transform="matrix(1.0284119500054254,0,0,1.0284119500054254,60.369088879869295,-2.6912214498808495)" stroke="none" fill="black"><path d="M26.002 17.023c19.352-32.546 59.228 2.345 70.664 12.314 11.435 9.97-18.18 7.038-18.18 7.038-26.096 1.173-68.024 29.026-68.024 29.026C-8.597 76.252 6.65 49.569 6.65 49.569l19.352-32.546zM13.833 47.37s-7.184 4.545-2.785 7.036c0 0 5.277 1.76 4.544-5.57.001 0-.184-2.631-1.759-1.466zM36.63 15.703c1.832.44 5.791-2.052 2.712-5.278-3.079-3.225-5.424 1.906-5.424 1.906-.585 2.932.88 2.932 2.712 3.372zM50.084 3.746s.745 4.348 5.532 3.317c0 0 1.182-.33 1.911-1.924 0 0-5.208-1.399-7.443-1.393zM38.243 36.741s-.366 3.373 3.226 2.273.807-3.582 0-3.293c-.807.287-3.372-.243-3.226 1.02zM54.81 23.84c.953-.586 4.91-.146 2.126-3.005-2.786-2.859-4.252 0-4.252 0-.293 1.759 1.173 3.591 2.126 3.005zm20.377-4.692c-1.612-3.885-4.618-2.052-4.618-2.052-1.979 1.466 6.232 5.937 4.618 2.052zm-51.678 9.676s-6.817 2.053-2.639 5.645 6.67.513 6.817-1.467c.147-1.979-1.026-5.131-4.178-4.178zm46.254 2.639s-3.298 3.225 1.979 3.738c5.278.514 6.801-2.273 3.656-3.738-3.142-1.465-4.99-.834-5.635 0zm20.2-7.82s1.238 5.302 4.703 3.958c0 0-4.027-3.409-4.703-3.958z"></path><path d="M38.232 49.535S54.861 86.801 37.133 96l15.513-2.026L48.432 96l12.19-2.331L57.49 96l11.255-2.634L66.465 96l10.559-3.543L75.398 96h6.899S61.349 45.366 68.744 37.804c.001 0-16.098 3.115-30.512 11.731z"></path></g><!----></svg>